<?xml version="1.0" encoding="utf-8"?>
<!-- Generator: Adobe Illustrator 16.0.0, SVG Export Plug-In . SVG Version: 6.00 Build 0)  -->
<!DOCTYPE svg PUBLIC "-//W3C//DTD SVG 1.1//EN" "http://www.w3.org/Graphics/SVG/1.1/DTD/svg11.dtd">
<svg version="1.1" id="Layer_1" xmlns="http://www.w3.org/2000/svg" xmlns:xlink="http://www.w3.org/1999/xlink" x="0px" y="0px"
	 width="360px" height="360px" viewBox="0 0 360 360" enable-background="new 0 0 360 360" xml:space="preserve">
<circle display="none" fill="#44AF31" cx="182.403" cy="187.907" r="251.239"/>
<g id="Layer_2">
	<path fill="#FFFFFF" d="M181.5,2C83.469,2,4,81.47,4,179.5S83.469,357,181.5,357c98.031,0,177.5-79.47,177.5-177.5
		S279.531,2,181.5,2z M181.738,350.739c-94.573,0-171.239-76.667-171.239-171.239c0-94.573,76.667-171.239,171.239-171.239
		c94.572,0,171.238,76.667,171.238,171.239C352.977,274.072,276.311,350.739,181.738,350.739z"/>
	<path fill="#FFFFFF" d="M273.93,131.366v-3.516l-3.193-2.026l-23.758,13.69l-62.189-35.972V76.111l-2.707-2.114l-3.69,2.099v27.406
		l-62.306,35.909l-23.734-13.729l-3.282,1.542l0.078,3.996l23.734,13.728l-0.056,71.878L89.07,230.518l0.15,3.185l3.044,2.356
		l23.756-13.69l62.219,35.989l-0.021,27.416l2.79,1.578l3.605-1.572l0.023-27.418l62.277-35.889l23.732,13.727l3.283-1.819
		l-0.076-3.718l-23.736-13.729l0.057-71.877L273.93,131.366z M243.721,217.157l-62.279,35.89l-62.218-35.988l0.057-71.879
		l62.277-35.889l62.221,35.988v0.001l0.002,0.001L243.721,217.157z"/>
</g>
<path fill="#FFFFFF" d="M181.5,56.088L73.708,118.209L73.61,242.621l107.692,62.291l107.793-62.123l0.1-124.41L181.5,56.088z
	 M273.832,130.924l-0.076,99.298l0.076,3.717l-3.281,1.82l-86.032,49.58l-3.606,1.568l-2.79-1.574l-85.955-49.717l-3.043-2.355
	l-0.15-3.188l0.078-99.296l-0.078-3.997l3.281-1.542l86.041-49.586l3.689-2.1l2.707,2.115l85.946,49.711l3.191,2.027v3.518H273.832
	L273.832,130.924z"/>
</svg>
