<?xml version="1.0" encoding="utf-8"?>
<!-- Generator: Adobe Illustrator 16.0.0, SVG Export Plug-In . SVG Version: 6.00 Build 0)  -->
<!DOCTYPE svg PUBLIC "-//W3C//DTD SVG 1.1//EN" "http://www.w3.org/Graphics/SVG/1.1/DTD/svg11.dtd">
<svg version="1.1" xmlns="http://www.w3.org/2000/svg" xmlns:xlink="http://www.w3.org/1999/xlink" x="0px" y="0px" width="360px"
	 height="360px" viewBox="0 0 360 360" enable-background="new 0 0 360 360" xml:space="preserve">
<g id="Layer_1" display="none">
	<g id="XMLID_13_" display="inline">
		<polygon id="XMLID_3_" display="none" fill="#2D2E2D" points="173.188,3.329 20.242,91.472 20.104,267.998 172.909,356.383 
			325.855,268.238 325.995,91.713 		"/>
		<polygon fill="#5DA044" points="172.259,23.123 172.259,71.9 264.053,125.581 309.752,100.087 		"/>
		<polygon fill="#5DA044" points="36.929,102.529 79.192,126.881 171.534,74.146 172.259,21.824 		"/>
		<polygon fill="#5DA044" points="37.275,257.777 80.008,234.26 82.781,127.955 38.412,100.213 		"/>
		<polygon fill="#5DA044" points="172.09,338.053 173.05,289.285 82.327,233.812 36.137,258.403 		"/>
		<polygon fill="#5DA044" points="307.764,259.946 265.298,235.946 173.402,289.457 173.116,341.783 		"/>
		<polygon fill="#5DA044" points="305.211,103.06 263.216,127.873 263.699,234.211 308.895,260.585 		"/>
		<polygon id="XMLID_60_" fill="#2D5227" points="74.53,130.39 74.53,226.627 178.265,285.812 264.964,237.665 265.062,120.212 
			178.391,71.9 		"/>
		<path id="XMLID_19_" fill="#2D2E2D" d="M172.397,2.929L19.451,91.072l-0.139,176.526l152.806,88.385l152.946-88.145l0.14-176.525
			L172.397,2.929z M265.168,120.674l-88.244-51.039V30.713l121.951,70.536L265.168,120.674z M172.176,281.443l-88.282-51.064
			l0.082-101.987l88.363-50.924l88.283,51.064l-0.081,101.989L172.176,281.443z M167.848,69.579l-88.405,50.949l-33.677-19.479
			l122.082-70.357V69.579z M74.898,128.385l-0.081,101.986l-33.706,19.428l0.111-140.892L74.898,128.385z M79.349,238.237
			l88.284,51.063l-0.032,38.904L45.642,257.662L79.349,238.237z M176.71,289.309l88.364-50.924l33.677,19.477l-122.072,70.351
			L176.71,289.309z M269.619,230.525l0.081-101.986l33.708-19.425l-0.113,140.891L269.619,230.525z"/>
	</g>
</g>
<g id="Layer_2">
	<circle fill="#5D8C3F" cx="181.5" cy="179.5" r="177.5"/>
	<g id="XMLID_23_">
		<polygon fill="#2D5227" points="180.5,69.917 180.5,104.293 245.194,142.126 277.401,124.159 		"/>
		<polygon fill="#2D5227" points="85.123,125.88 114.909,143.043 179.989,105.876 180.5,69.001 		"/>
		<polygon fill="#2D5227" points="85.367,235.295 115.484,218.72 117.438,143.8 86.168,124.248 		"/>
		<polygon fill="#2D5227" points="180.381,291.87 181.057,257.5 117.118,218.405 84.565,235.735 		"/>
		<polygon fill="#2D5227" points="276.001,236.823 246.071,219.909 181.305,257.622 181.104,294.5 		"/>
		<polygon fill="#2D5227" points="274.2,126.254 244.604,143.742 244.944,218.686 276.797,237.273 		"/>
		<path id="XMLID_24_" display="none" fill="#2D2E2D" d="M180.598,55.685L72.805,117.805l-0.098,124.412L180.4,304.508
			l107.793-62.122l0.1-124.411L180.598,55.685z M245.979,138.667l-62.19-35.971V75.266l85.947,49.711L245.979,138.667z
			 M180.441,251.974l-62.219-35.988l0.058-71.877l62.276-35.891l62.221,35.988l-0.058,71.879L180.441,251.974z M177.392,102.657
			l-62.306,35.907l-23.734-13.728l86.04-49.586V102.657z M111.882,144.103l-0.057,71.878L88.07,229.672l0.078-99.297
			L111.882,144.103z M115.02,221.523l62.22,35.988l-0.021,27.418l-85.955-49.716L115.02,221.523z M183.636,257.518l62.278-35.891
			l23.733,13.728l-86.033,49.58L183.636,257.518z M249.117,216.089l0.057-71.878l23.755-13.69l-0.076,99.297L249.117,216.089z"/>
		<g>
			<polygon fill="none" points="177.392,102.657 177.392,75.25 91.352,124.837 115.086,138.564 			"/>
			<polygon fill="none" points="111.882,144.103 88.148,130.375 88.07,229.672 111.826,215.98 			"/>
			<polygon fill="none" points="115.02,221.523 91.264,235.214 177.218,284.93 177.239,257.512 			"/>
			<polygon fill="none" points="245.979,138.667 269.736,124.977 183.789,75.266 183.789,102.697 			"/>
			<polygon fill="none" points="249.117,216.089 272.853,229.817 272.929,130.521 249.174,144.211 			"/>
			<polygon fill="none" points="118.28,144.108 118.223,215.985 180.441,251.974 242.72,216.085 242.777,144.206 180.557,108.217 
							"/>
			<polygon fill="none" points="183.636,257.518 183.614,284.935 269.647,235.354 245.914,221.627 			"/>
			<path fill="#5D8C3F" d="M180.598,55.685L72.805,117.805l-0.098,124.412L180.4,304.508l107.793-62.122l0.1-124.411L180.598,55.685
				z M272.929,130.521l-0.076,99.297l0.076,3.717l-3.281,1.82l-86.033,49.58l-3.606,1.571l-2.79-1.576l-85.955-49.716l-3.043-2.357
				l-0.15-3.185l0.078-99.297l-0.078-3.997l3.281-1.542l86.04-49.586l3.69-2.099l2.707,2.114l85.947,49.711l3.192,2.028V130.521z"/>
			<path fill="#2D2E2D" d="M242.72,216.085l-62.278,35.889l-62.219-35.988l0.058-71.877l62.276-35.891l62.221,35.988L242.72,216.085
				z"/>
		</g>
	</g>
	<polygon id="XMLID_14_" fill="#2D5227" points="111.623,145.516 111.623,213.341 184.733,255.053 245.837,221.119 245.904,138.342 
		184.821,104.293 	"/>
	<polygon fill="#FFFFFF" points="245.979,138.514 183.789,102.542 183.789,75.111 181.082,72.997 177.392,75.096 177.392,102.502 
		115.086,138.411 91.352,124.682 88.07,126.224 88.148,130.22 111.882,143.947 111.826,215.825 88.07,229.517 88.22,232.702 
		91.264,235.059 115.02,221.368 177.239,257.357 177.218,284.774 180.008,286.351 183.614,284.78 183.636,257.362 245.914,221.472 
		269.647,235.199 272.929,233.38 272.853,229.662 249.117,215.934 249.174,144.056 272.929,130.366 272.929,126.85 269.736,124.824 
			"/>
	<g>
		<polygon fill="none" points="177.392,102.73 177.392,75.324 91.352,124.91 115.086,138.639 		"/>
		<polygon fill="none" points="111.882,144.175 88.148,130.448 88.07,229.744 111.826,216.053 		"/>
		<polygon fill="none" points="115.02,221.597 91.264,235.287 177.218,285.003 177.239,257.585 		"/>
		<polygon fill="none" points="245.979,138.742 269.736,125.051 183.789,75.339 183.789,102.77 		"/>
		<polygon fill="none" points="249.117,216.161 272.853,229.891 272.929,130.593 249.174,144.284 		"/>
		<polygon fill="none" points="118.28,144.179 118.223,216.059 180.441,252.047 242.72,216.157 242.777,144.278 180.557,108.29 		
			"/>
		<polygon fill="none" points="183.636,257.59 183.614,285.008 269.647,235.427 245.914,221.699 		"/>
		<path fill="#2D5227" d="M242.72,216.157l-62.278,35.89l-62.219-35.988l0.058-71.879l62.276-35.889l62.221,35.988L242.72,216.157z"
			/>
	</g>
</g>
</svg>
