<?xml version="1.0" encoding="utf-8"?>
<!-- Generator: Adobe Illustrator 16.0.0, SVG Export Plug-In . SVG Version: 6.00 Build 0)  -->
<!DOCTYPE svg PUBLIC "-//W3C//DTD SVG 1.1//EN" "http://www.w3.org/Graphics/SVG/1.1/DTD/svg11.dtd">
<svg version="1.1" xmlns="http://www.w3.org/2000/svg" xmlns:xlink="http://www.w3.org/1999/xlink" x="0px" y="0px" width="360px"
	 height="360px" viewBox="0 0 360 360" enable-background="new 0 0 360 360" xml:space="preserve">
<g id="Layer_1" display="none">
	<g id="XMLID_13_" display="inline">
		<polygon id="XMLID_3_" display="none" fill="#2D2E2D" points="173.188,3.329 20.242,91.472 20.104,267.998 172.909,356.383 
			325.855,268.238 325.995,91.713 		"/>
		<polygon fill="#5DA044" points="172.259,23.123 172.259,71.9 264.053,125.581 309.752,100.087 		"/>
		<polygon fill="#5DA044" points="36.929,102.529 79.192,126.881 171.534,74.146 172.259,21.824 		"/>
		<polygon fill="#5DA044" points="37.275,257.777 80.008,234.26 82.781,127.955 38.412,100.213 		"/>
		<polygon fill="#5DA044" points="172.09,338.053 173.05,289.285 82.327,233.812 36.137,258.403 		"/>
		<polygon fill="#5DA044" points="307.764,259.946 265.298,235.946 173.402,289.457 173.116,341.783 		"/>
		<polygon fill="#5DA044" points="305.211,103.06 263.216,127.873 263.699,234.211 308.895,260.585 		"/>
		<polygon id="XMLID_60_" fill="#2D5227" points="74.53,130.39 74.53,226.627 178.265,285.812 264.964,237.665 265.062,120.212 
			178.391,71.9 		"/>
		<path id="XMLID_19_" fill="#2D2E2D" d="M172.397,2.929L19.451,91.072l-0.139,176.526l152.806,88.385l152.946-88.145l0.14-176.525
			L172.397,2.929z M265.168,120.674l-88.244-51.039V30.713l121.951,70.536L265.168,120.674z M172.176,281.443l-88.282-51.064
			l0.082-101.987l88.363-50.924l88.283,51.064l-0.081,101.989L172.176,281.443z M167.848,69.579l-88.405,50.949l-33.677-19.479
			l122.082-70.357V69.579z M74.898,128.385l-0.081,101.986l-33.706,19.428l0.111-140.892L74.898,128.385z M79.349,238.237
			l88.284,51.063l-0.032,38.904L45.642,257.662L79.349,238.237z M176.71,289.309l88.364-50.924l33.677,19.477l-122.072,70.351
			L176.71,289.309z M269.619,230.525l0.081-101.986l33.708-19.425l-0.113,140.891L269.619,230.525z"/>
	</g>
</g>
<g id="Layer_2">
	<circle fill="#5D8C3F" cx="181.5" cy="179.5" r="177.5"/>
	<g id="XMLID_23_">
		<polygon fill="#2D5227" points="181.5,70.917 181.5,105.293 246.194,143.126 278.401,125.159 		"/>
		<polygon fill="#2D5227" points="86.123,126.88 115.909,144.043 180.989,106.876 181.5,70.001 		"/>
		<polygon fill="#2D5227" points="86.367,236.295 116.484,219.72 118.438,144.8 87.168,125.248 		"/>
		<polygon fill="#2D5227" points="181.381,292.87 182.057,258.5 118.118,219.405 85.565,236.735 		"/>
		<polygon fill="#2D5227" points="277.001,237.823 247.071,220.909 182.305,258.622 182.104,295.5 		"/>
		<polygon fill="#2D5227" points="275.2,127.254 245.604,144.742 245.944,219.686 277.797,238.273 		"/>
		<path id="XMLID_24_" display="none" fill="#2D2E2D" d="M181.598,56.685L73.805,118.805l-0.098,124.412L181.4,305.508
			l107.793-62.122l0.1-124.411L181.598,56.685z M246.979,139.667l-62.19-35.971V76.266l85.947,49.711L246.979,139.667z
			 M181.441,252.974l-62.219-35.988l0.058-71.877l62.276-35.891l62.221,35.988l-0.058,71.879L181.441,252.974z M178.392,103.657
			l-62.306,35.907l-23.734-13.728l86.04-49.586V103.657z M112.882,145.103l-0.057,71.878L89.07,230.672l0.078-99.297
			L112.882,145.103z M116.02,222.523l62.22,35.988l-0.021,27.418l-85.955-49.716L116.02,222.523z M184.636,258.518l62.278-35.891
			l23.733,13.728l-86.033,49.58L184.636,258.518z M250.117,217.089l0.057-71.878l23.755-13.69l-0.076,99.297L250.117,217.089z"/>
		<g>
			<polygon fill="none" points="178.392,103.657 178.392,76.25 92.352,125.837 116.086,139.564 			"/>
			<polygon fill="none" points="112.882,145.103 89.148,131.375 89.07,230.672 112.826,216.98 			"/>
			<polygon fill="none" points="116.02,222.523 92.264,236.214 178.218,285.93 178.239,258.512 			"/>
			<polygon fill="none" points="246.979,139.667 270.736,125.977 184.789,76.266 184.789,103.697 			"/>
			<polygon fill="none" points="250.117,217.089 273.853,230.817 273.929,131.521 250.174,145.211 			"/>
			<polygon fill="none" points="119.28,145.108 119.223,216.985 181.441,252.974 243.72,217.085 243.777,145.206 181.557,109.217 
							"/>
			<polygon fill="none" points="184.636,258.518 184.614,285.935 270.647,236.354 246.914,222.627 			"/>
			<path fill="#FFFFFF" d="M181.598,56.685L73.805,118.805l-0.098,124.412L181.4,305.508l107.793-62.122l0.1-124.411L181.598,56.685
				z M273.929,131.521l-0.076,99.297l0.076,3.717l-3.281,1.82l-86.033,49.58l-3.606,1.571l-2.79-1.576l-85.955-49.716l-3.043-2.357
				l-0.15-3.185l0.078-99.297l-0.078-3.997l3.281-1.542l86.04-49.586l3.69-2.099l2.707,2.114l85.947,49.711l3.192,2.028V131.521z"/>
			<path fill="#2D2E2D" d="M243.72,217.085l-62.278,35.889l-62.219-35.988l0.058-71.877l62.276-35.891l62.221,35.988L243.72,217.085
				z"/>
		</g>
	</g>
	<polygon id="XMLID_14_" fill="#2D5227" points="112.623,146.516 112.623,214.341 185.733,256.053 246.837,222.119 246.904,139.342 
		185.821,105.293 	"/>
	<polygon fill="#FFFFFF" points="246.979,139.514 184.789,103.542 184.789,76.111 182.082,73.997 178.392,76.096 178.392,103.502 
		116.086,139.411 92.352,125.682 89.07,127.224 89.148,131.22 112.882,144.947 112.826,216.825 89.07,230.517 89.22,233.702 
		92.264,236.059 116.02,222.368 178.239,258.357 178.218,285.774 181.008,287.351 184.614,285.78 184.636,258.362 246.914,222.472 
		270.647,236.199 273.929,234.38 273.853,230.662 250.117,216.934 250.174,145.056 273.929,131.366 273.929,127.85 270.736,125.824 
			"/>
	<g>
		<polygon fill="none" points="178.392,103.73 178.392,76.324 92.352,125.91 116.086,139.639 		"/>
		<polygon fill="none" points="112.882,145.175 89.148,131.448 89.07,230.744 112.826,217.053 		"/>
		<polygon fill="none" points="116.02,222.597 92.264,236.287 178.218,286.003 178.239,258.585 		"/>
		<polygon fill="none" points="246.979,139.742 270.736,126.051 184.789,76.339 184.789,103.77 		"/>
		<polygon fill="none" points="250.117,217.161 273.853,230.891 273.929,131.593 250.174,145.284 		"/>
		<polygon fill="none" points="119.28,145.179 119.223,217.059 181.441,253.047 243.72,217.157 243.777,145.278 181.557,109.29 		
			"/>
		<polygon fill="none" points="184.636,258.59 184.614,286.008 270.647,236.427 246.914,222.699 		"/>
		<path fill="#2D5227" d="M243.72,217.157l-62.278,35.89l-62.219-35.988l0.058-71.879l62.276-35.889l62.221,35.988L243.72,217.157z"
			/>
	</g>
</g>
</svg>
