<?xml version="1.0" encoding="utf-8"?>
<!-- Generator: Adobe Illustrator 16.0.0, SVG Export Plug-In . SVG Version: 6.00 Build 0)  -->
<!DOCTYPE svg PUBLIC "-//W3C//DTD SVG 1.1//EN" "http://www.w3.org/Graphics/SVG/1.1/DTD/svg11.dtd">
<svg version="1.1" id="Layer_1" xmlns="http://www.w3.org/2000/svg" xmlns:xlink="http://www.w3.org/1999/xlink" x="0px" y="0px"
	 width="360px" height="360px" viewBox="0 0 360 360" enable-background="new 0 0 360 360" xml:space="preserve">
<g id="Layer_2" opacity="0.7">
	<circle fill="#FFFFFF" cx="181.5" cy="179.5" r="177.5"/>
	<circle fill="#2D5227" cx="181.738" cy="179.5" r="171.239"/>
	<g id="XMLID_23_">
		<polygon fill="#2D5227" points="181.5,70.917 181.5,105.293 246.193,143.126 278.4,125.159 		"/>
		<polygon fill="#2D5227" points="86.123,126.88 115.909,144.043 180.988,106.876 181.5,70.001 		"/>
		<polygon fill="#2D5227" points="86.367,236.295 116.484,219.72 118.438,144.8 87.168,125.248 		"/>
		<polygon fill="#2D5227" points="181.381,292.87 182.057,258.5 118.118,219.405 85.565,236.734 		"/>
		<polygon fill="#2D5227" points="277.001,237.823 247.07,220.909 182.305,258.622 182.104,295.5 		"/>
		<polygon fill="#2D5227" points="275.2,127.254 245.604,144.742 245.943,219.686 277.797,238.273 		"/>
		<path id="XMLID_24_" display="none" fill="#2D2E2D" d="M181.598,56.685l-107.792,62.12l-0.098,124.412L181.4,305.508
			l107.793-62.122l0.1-124.411L181.598,56.685z M246.979,139.667l-62.188-35.971v-27.43l85.946,49.711L246.979,139.667z
			 M181.441,252.975l-62.219-35.988l0.058-71.876l62.277-35.891l62.221,35.988l-0.059,71.879L181.441,252.975z M178.392,103.657
			l-62.306,35.907l-23.734-13.728l86.04-49.586V103.657z M112.882,145.103l-0.057,71.877L89.07,230.672l0.078-99.297
			L112.882,145.103z M116.02,222.523l62.22,35.986l-0.021,27.42l-85.955-49.718L116.02,222.523z M184.637,258.518l62.277-35.891
			l23.732,13.729l-86.033,49.58L184.637,258.518z M250.117,217.089l0.057-71.878l23.756-13.69l-0.076,99.297L250.117,217.089z"/>
		<g>
			<polygon fill="none" points="178.392,103.657 178.392,76.25 92.352,125.837 116.086,139.564 			"/>
			<polygon fill="none" points="112.882,145.103 89.148,131.375 89.07,230.672 112.826,216.98 			"/>
			<polygon fill="none" points="116.02,222.523 92.264,236.214 178.218,285.93 178.239,258.512 			"/>
			<polygon fill="none" points="246.979,139.667 270.736,125.977 184.789,76.266 184.789,103.697 			"/>
			<polygon fill="none" points="250.117,217.089 273.854,230.816 273.93,131.521 250.174,145.211 			"/>
			<polygon fill="none" points="119.28,145.108 119.223,216.984 181.441,252.975 243.721,217.085 243.777,145.206 181.557,109.217 
							"/>
			<polygon fill="none" points="184.637,258.518 184.613,285.936 270.646,236.354 246.914,222.627 			"/>
			<path fill="#FFFFFF" d="M181.598,56.685l-107.792,62.12l-0.098,124.412L181.4,305.508l107.793-62.122l0.1-124.411L181.598,56.685
				z M273.93,131.521l-0.076,99.297l0.076,3.717l-3.281,1.82l-86.032,49.58l-3.606,1.569l-2.79-1.575l-85.955-49.717l-3.043-2.355
				l-0.15-3.187l0.078-99.297l-0.078-3.997l3.281-1.542l86.04-49.586l3.69-2.099l2.707,2.114l85.946,49.711l3.191,2.028v3.517
				L273.93,131.521L273.93,131.521z"/>
			<path fill="#2D2E2D" d="M243.721,217.085l-62.279,35.89l-62.217-35.988l0.058-71.876l62.276-35.891l62.221,35.988
				L243.721,217.085z"/>
		</g>
	</g>
	<polygon id="XMLID_14_" fill="#2D5227" points="112.623,146.516 112.623,214.341 185.732,256.053 246.837,222.119 246.904,139.342 
		185.82,105.293 	"/>
	<polygon fill="#FFFFFF" points="246.979,139.514 184.789,103.542 184.789,76.111 182.082,73.997 178.392,76.096 178.392,103.502 
		116.086,139.411 92.352,125.682 89.07,127.224 89.148,131.22 112.882,144.947 112.826,216.825 89.07,230.518 89.22,233.702 
		92.264,236.059 116.02,222.368 178.239,258.357 178.218,285.773 181.008,287.352 184.613,285.779 184.637,258.361 246.914,222.473 
		270.646,236.199 273.93,234.38 273.854,230.662 250.117,216.934 250.174,145.056 273.93,131.366 273.93,127.85 270.736,125.824 	
		"/>
	<g>
		<polygon fill="none" points="178.392,103.73 178.392,76.324 92.352,125.91 116.086,139.639 		"/>
		<polygon fill="none" points="112.882,145.175 89.148,131.448 89.07,230.744 112.826,217.053 		"/>
		<polygon fill="none" points="116.02,222.598 92.264,236.287 178.218,286.003 178.239,258.585 		"/>
		<polygon fill="none" points="246.979,139.742 270.736,126.051 184.789,76.339 184.789,103.77 		"/>
		<polygon fill="none" points="250.117,217.161 273.854,230.891 273.93,131.593 250.174,145.284 		"/>
		<polygon fill="none" points="119.28,145.179 119.223,217.059 181.441,253.047 243.721,217.157 243.777,145.278 181.557,109.29 		
			"/>
		<polygon fill="none" points="184.637,258.59 184.613,286.008 270.646,236.427 246.914,222.699 		"/>
		<path fill="#2D5227" d="M243.721,217.157l-62.279,35.89l-62.217-35.988l0.058-71.877l62.276-35.889l62.221,35.988L243.721,217.157
			z"/>
	</g>
</g>
</svg>
