<?xml version="1.0" encoding="utf-8"?>
<!-- Generator: Adobe Illustrator 25.1.0, SVG Export Plug-In . SVG Version: 6.00 Build 0)  -->
<svg version="1.1" id="Layer_1" xmlns="http://www.w3.org/2000/svg" xmlns:xlink="http://www.w3.org/1999/xlink" x="0px" y="0px"
	 viewBox="0 0 600 600" style="enable-background:new 0 0 600 600;" xml:space="preserve">
<style type="text/css">
	.st0{fill:none;stroke:#FFFFFF;stroke-width:15.6356;stroke-miterlimit:10;}
	.st1{fill:url(#SVGID_1_);}
	.st2{fill:none;stroke:#FFFFFF;stroke-width:7.5725;stroke-miterlimit:10;}
	.st3{fill:url(#SVGID_2_);}
	.st4{fill:#1B442B;}
	.st5{fill:#265F70;}
</style>
<linearGradient id="SVGID_1_" gradientUnits="userSpaceOnUse" x1="115.862" y1="115.8173" x2="620.4384" y2="620.3936">
	<stop  offset="0" style="stop-color:#1B442B"/>
	<stop  offset="0.2261" style="stop-color:#1F4E44"/>
	<stop  offset="0.5065" style="stop-color:#23575C"/>
	<stop  offset="0.7655" style="stop-color:#255D6B"/>
	<stop  offset="0.9804" style="stop-color:#265F70"/>
</linearGradient>
<path class="st1" d="M538.06,134.83L323.58,11.01c-14.7-8.48-32.8-8.48-47.5,0L61.61,134.83c-14.7,8.48-23.75,24.16-23.75,41.13
	l0,247.65c0,16.97,9.05,32.65,23.75,41.13l214.47,123.83c14.7,8.48,32.8,8.48,47.5,0l214.47-123.83
	c14.7-8.48,23.75-24.16,23.75-41.13l0-247.65C561.81,159,552.75,143.32,538.06,134.83z"/>
<g>
	<path class="st0" d="M482.23,387.62c-0.04-8.96-10.37-14.56-18.75-10.21l-40.38,21.09l-299.6-161.94
		c-4.32-2.32-6.89-6.64-6.74-11.28l0.23-6.03c0,5.92,6.85,9.74,12.44,6.82l48.07-25.02l298.03,163.01c4.1,2.25,6.62,6.32,6.66,10.78
		L482.23,387.62z"/>
	<path class="st0" d="M307.89,525.98l-1.68,0.93c-3.83,2.11-8.57,2.14-12.48,0.14l-1.49-0.79
		C297.14,528.73,303.11,528.62,307.89,525.98z"/>
	<path class="st0" d="M482.38,423.81c0.04,4.18-2.33,8.07-6.2,10.17L356.5,499.39l-48.61,26.59c-4.78,2.64-10.76,2.75-15.65,0.29
		c-0.08,0-0.11-0.04-0.19-0.07l-56.91-29.37l-105.33-54.31c-7.5-3.89-12.13-11.28-12.02-19.31l0.42-32.01
		c0.15-10.56,12.4-17.13,22.28-11.88l148.23,78.64c6.37,3.38,14,3.41,20.4,0.07l113.98-59.51l40.38-21.09
		c8.38-4.35,18.72,1.25,18.75,10.21l0.11,27.84L482.38,423.81z"/>
	<path class="st0" d="M482.92,172.58l-0.38,28.05c-0.19,12.74-14.89,20.66-26.79,14.49L313,141.02c-6.36-3.3-13.94-3.3-20.3,0.02
		l-115.2,60.02l-48.07,25.02c-5.59,2.93-12.44-0.89-12.44-6.82v-0.25l1.3-37.11l0.23-6c0.11-4.35,2.68-8.31,6.7-10.49l115.28-63.02
		l53.7-29.37c3.79-2.07,8.38-2.39,12.44-0.96c0.27,0.11,0.54,0.21,0.8,0.32c0.27,0.11,0.54,0.25,0.8,0.39l43.06,21.55l120.18,60.13
		C478.63,158.02,483.03,165.02,482.92,172.58z"/>
	<path class="st0" d="M306.63,72.05c-4.06-1.43-8.65-1.11-12.44,0.96l0.38-0.21C298.25,70.77,302.73,70.52,306.63,72.05z"/>
	<path class="st0" d="M308.24,72.77c-0.27-0.14-0.54-0.29-0.8-0.39c0.15,0.04,0.31,0.11,0.42,0.18L308.24,72.77z"/>
</g>
</svg>
