<svg xmlns="http://www.w3.org/2000/svg" xmlns:xlink="http://www.w3.org/1999/xlink" viewBox="0 0 528.94 595.3"><defs><style>.cls-1,.cls-2{stroke:#fff;stroke-miterlimit:10;}.cls-1{stroke-width:5px;fill:url(#linear-gradient);}.cls-2{fill:none;stroke-width:15.64px;}</style><linearGradient id="linear-gradient" x1="80.5" y1="113.68" x2="585.07" y2="618.25" gradientUnits="userSpaceOnUse"><stop offset="0" stop-color="#1b442b"/><stop offset="0.23" stop-color="#1f4e44"/><stop offset="0.51" stop-color="#23575c"/><stop offset="0.77" stop-color="#255d6b"/><stop offset="0.98" stop-color="#265f70"/></linearGradient></defs><g id="Layer_2" data-name="Layer 2"><g id="Layer_1-2" data-name="Layer 1"><path class="cls-1" d="M502.69,132.69,288.22,8.86a47.52,47.52,0,0,0-47.5,0L26.25,132.69A47.48,47.48,0,0,0,2.5,173.82V421.48a47.5,47.5,0,0,0,23.75,41.13L240.72,586.44a47.52,47.52,0,0,0,47.5,0L502.69,462.61a47.5,47.5,0,0,0,23.75-41.13V173.82A47.48,47.48,0,0,0,502.69,132.69Z"/><path class="cls-2" d="M446.86,385.48c0-9-10.37-14.56-18.75-10.2l-40.38,21.09-299.6-162a12.36,12.36,0,0,1-6.74-11.27l.23-6c0,5.92,6.85,9.74,12.44,6.81l48.07-25,298,163a12.48,12.48,0,0,1,6.66,10.78Z"/><path class="cls-2" d="M272.53,523.84l-1.69.93a13.41,13.41,0,0,1-12.47.14l-1.5-.79A17,17,0,0,0,272.53,523.84Z"/><path class="cls-2" d="M447,421.67a11.58,11.58,0,0,1-6.2,10.17L321.14,497.25l-48.61,26.59a17,17,0,0,1-15.66.28.4.4,0,0,1-.19-.07l-56.91-29.37L94.44,440.37a21.53,21.53,0,0,1-12-19.31l.42-32c.15-10.56,12.4-17.13,22.27-11.88l148.23,78.64a21.9,21.9,0,0,0,20.4.06l114-59.5,40.38-21.09c8.38-4.36,18.72,1.25,18.75,10.2l.12,27.84Z"/><path class="cls-2" d="M447.55,170.44l-.38,28.05c-.19,12.74-14.89,20.66-26.79,14.49l-142.75-74.1a22,22,0,0,0-20.3,0l-115.2,60-48.07,25c-5.59,2.93-12.44-.89-12.44-6.81v-.25l1.3-37.12.23-6a12.4,12.4,0,0,1,6.7-10.49l115.28-63,53.7-29.37a15.44,15.44,0,0,1,12.44-1l.8.32a6.63,6.63,0,0,1,.8.4l43.06,21.55,120.18,60.13A20,20,0,0,1,447.55,170.44Z"/><path class="cls-2" d="M271.27,69.91a15.44,15.44,0,0,0-12.44,1l.38-.22A14.31,14.31,0,0,1,271.27,69.91Z"/><path class="cls-2" d="M272.87,70.63a6.63,6.63,0,0,0-.8-.4,1.61,1.61,0,0,1,.42.18Z"/></g></g></svg>