<?xml version="1.0" encoding="utf-8"?>
<!-- Generator: Adobe Illustrator 16.0.0, SVG Export Plug-In . SVG Version: 6.00 Build 0)  -->
<!DOCTYPE svg PUBLIC "-//W3C//DTD SVG 1.1//EN" "http://www.w3.org/Graphics/SVG/1.1/DTD/svg11.dtd">
<svg version="1.1" xmlns="http://www.w3.org/2000/svg" xmlns:xlink="http://www.w3.org/1999/xlink" x="0px" y="0px" width="360px"
	 height="360px" viewBox="0 0 360 360" enable-background="new 0 0 360 360" xml:space="preserve">
<g id="Layer_1" display="none">
	<g id="XMLID_13_" display="inline">
		<polygon id="XMLID_3_" display="none" fill="#2D2E2D" points="173.188,3.329 20.242,91.472 20.104,267.998 172.909,356.383 
			325.855,268.238 325.995,91.713 		"/>
		<polygon fill="#5DA044" points="172.259,23.123 172.259,71.9 264.053,125.581 309.752,100.087 		"/>
		<polygon fill="#5DA044" points="36.929,102.529 79.192,126.881 171.534,74.146 172.259,21.824 		"/>
		<polygon fill="#5DA044" points="37.275,257.777 80.008,234.26 82.781,127.955 38.412,100.213 		"/>
		<polygon fill="#5DA044" points="172.09,338.053 173.05,289.285 82.327,233.812 36.137,258.403 		"/>
		<polygon fill="#5DA044" points="307.764,259.946 265.298,235.946 173.402,289.457 173.116,341.783 		"/>
		<polygon fill="#5DA044" points="305.211,103.06 263.216,127.873 263.699,234.211 308.895,260.585 		"/>
		<polygon id="XMLID_60_" fill="#2D5227" points="74.53,130.39 74.53,226.627 178.265,285.812 264.964,237.665 265.062,120.212 
			178.391,71.9 		"/>
		<path id="XMLID_19_" fill="#2D2E2D" d="M172.397,2.929L19.451,91.072l-0.139,176.526l152.806,88.385l152.946-88.145l0.14-176.525
			L172.397,2.929z M265.168,120.674l-88.244-51.039V30.713l121.951,70.536L265.168,120.674z M172.176,281.443l-88.282-51.064
			l0.082-101.987l88.363-50.924l88.283,51.064l-0.081,101.989L172.176,281.443z M167.848,69.579l-88.405,50.949l-33.677-19.479
			l122.082-70.357V69.579z M74.898,128.385l-0.081,101.986l-33.706,19.428l0.111-140.892L74.898,128.385z M79.349,238.237
			l88.284,51.063l-0.032,38.904L45.642,257.662L79.349,238.237z M176.71,289.309l88.364-50.924l33.677,19.477l-122.072,70.351
			L176.71,289.309z M269.619,230.525l0.081-101.986l33.708-19.425l-0.113,140.891L269.619,230.525z"/>
	</g>
</g>
<g id="Layer_2">
	<g id="XMLID_23_">
		<polygon fill="#2D5227" points="172.876,22.392 172.876,71.366 265.043,125.264 310.925,99.667 		"/>
		<polygon fill="#2D5227" points="37,102.119 79.434,126.569 172.148,73.622 172.876,21.087 		"/>
		<polygon fill="#2D5227" points="37.348,257.994 80.254,234.381 83.037,127.648 38.49,99.793 		"/>
		<polygon fill="#2D5227" points="172.707,338.594 173.671,289.628 82.582,233.931 36.205,258.622 		"/>
		<polygon fill="#2D5227" points="308.931,260.172 266.291,236.077 174.023,289.802 173.737,342.34 		"/>
		<polygon fill="#2D5227" points="306.364,102.652 264.201,127.565 264.686,234.332 310.063,260.812 		"/>
		<path id="XMLID_24_" display="none" fill="#2D2E2D" d="M173.016,2.117l-153.564,88.5l-0.14,177.238l153.423,88.742l153.565-88.5
			l0.141-177.239L173.016,2.117z M266.161,120.337l-88.598-51.245V30.013l122.442,70.82L266.161,120.337z M172.793,281.755
			l-88.639-51.271l0.082-102.399l88.721-51.129l88.642,51.271l-0.083,102.4L172.793,281.755z M168.449,69.035L79.687,120.19
			l-33.812-19.558l122.575-70.642V69.035z M75.123,128.079l-0.081,102.399l-33.843,19.504l0.111-141.459L75.123,128.079z
			 M79.592,238.375l88.64,51.271l-0.03,39.06L45.749,257.879L79.592,238.375z M177.344,289.652l88.722-51.131l33.812,19.558
			l-122.565,70.634L177.344,289.652z M270.631,230.633l0.081-102.399l33.841-19.503l-0.108,141.46L270.631,230.633z"/>
		<g>
			<polygon fill="none" points="168.449,69.035 168.449,29.991 45.874,100.633 79.687,120.19 			"/>
			<polygon fill="none" points="75.123,128.079 41.31,108.523 41.199,249.982 75.042,230.479 			"/>
			<polygon fill="none" points="79.592,238.375 45.749,257.879 168.202,328.705 168.232,289.646 			"/>
			<polygon fill="none" points="266.161,120.337 300.005,100.833 177.563,30.013 177.563,69.092 			"/>
			<polygon fill="none" points="270.631,230.633 304.444,250.19 304.553,108.73 270.712,128.233 			"/>
			<polygon fill="none" points="84.237,128.085 84.155,230.484 172.793,281.755 261.517,230.627 261.6,128.227 172.958,76.956 			
				"/>
			<polygon fill="none" points="177.344,289.652 177.313,328.713 299.879,258.079 266.066,238.521 			"/>
			<path fill="#2D2E2D" d="M173.016,2.117l-153.564,88.5l-0.14,177.238l153.423,88.742l153.565-88.5l0.141-177.239L173.016,2.117z
				 M304.553,108.73l-0.108,141.46l0.108,5.296l-4.674,2.593l-122.565,70.634l-5.137,2.237l-3.975-2.245L45.749,257.879
				l-4.335-3.358l-0.214-4.538l0.111-141.459l-0.111-5.694l4.675-2.196l122.575-70.642l5.258-2.99l3.856,3.012l122.442,70.82
				l4.548,2.888V108.73z"/>
			<path fill="#2D2E2D" d="M261.517,230.627l-88.723,51.128l-88.639-51.271l0.082-102.399l88.721-51.129l88.642,51.271
				L261.517,230.627z"/>
		</g>
	</g>
	<polygon id="XMLID_14_" fill="#2D5227" points="74.753,130.092 74.753,226.718 178.908,286.142 265.958,237.799 266.053,119.874 
		179.033,71.366 	"/>
	<polygon fill="#FFFFFF" stroke="#FFFFFF" stroke-width="4" stroke-miterlimit="10" points="266.161,120.116 177.563,68.871 
		177.563,29.792 173.707,26.78 168.449,29.771 168.449,68.814 79.687,119.97 45.874,100.412 41.199,102.608 41.31,108.302 
		75.123,127.858 75.042,230.257 41.199,249.763 41.413,254.299 45.749,257.658 79.592,238.154 168.232,289.425 168.202,328.484 
		172.177,330.729 177.313,328.492 177.344,289.432 266.066,238.302 299.879,257.857 304.553,255.266 304.444,249.971 
		270.631,230.411 270.712,128.013 304.553,108.509 304.553,103.5 300.005,100.613 	"/>
	<g>
		<polygon fill="none" points="168.449,69.139 168.449,30.095 45.874,100.736 79.687,120.294 		"/>
		<polygon fill="none" points="75.123,128.183 41.31,108.626 41.199,250.087 75.042,230.582 		"/>
		<polygon fill="none" points="79.592,238.479 45.749,257.982 168.202,328.81 168.232,289.749 		"/>
		<polygon fill="none" points="266.161,120.441 300.005,100.938 177.563,30.117 177.563,69.196 		"/>
		<polygon fill="none" points="270.631,230.736 304.444,250.294 304.553,108.834 270.712,128.337 		"/>
		<polygon fill="none" points="84.237,128.189 84.155,230.59 172.793,281.858 261.517,230.73 261.6,128.33 172.958,77.06 		"/>
		<polygon fill="none" points="177.344,289.757 177.313,328.817 299.879,258.183 266.066,238.627 		"/>
		<path fill="#2D5227" d="M261.517,230.73l-88.723,51.128L84.155,230.59l0.082-102.4l88.721-51.13l88.642,51.27L261.517,230.73z"/>
	</g>
</g>
</svg>
