<?xml version="1.0" encoding="utf-8"?>
<!-- Generator: Adobe Illustrator 16.0.0, SVG Export Plug-In . SVG Version: 6.00 Build 0)  -->
<!DOCTYPE svg PUBLIC "-//W3C//DTD SVG 1.1//EN" "http://www.w3.org/Graphics/SVG/1.1/DTD/svg11.dtd">
<svg version="1.1" xmlns="http://www.w3.org/2000/svg" xmlns:xlink="http://www.w3.org/1999/xlink" x="0px" y="0px" width="360px"
	 height="360px" viewBox="0 0 360 360" enable-background="new 0 0 360 360" xml:space="preserve">
<g id="Layer_1" display="none">
	<g id="XMLID_13_" display="inline">
		<polygon id="XMLID_3_" display="none" fill="#2D2E2D" points="173.188,3.329 20.242,91.472 20.104,267.998 172.909,356.383 
			325.855,268.238 325.995,91.713 		"/>
		<polygon fill="#5DA044" points="172.259,23.123 172.259,71.9 264.053,125.581 309.752,100.087 		"/>
		<polygon fill="#5DA044" points="36.929,102.529 79.192,126.881 171.534,74.146 172.259,21.824 		"/>
		<polygon fill="#5DA044" points="37.275,257.777 80.008,234.26 82.781,127.955 38.412,100.213 		"/>
		<polygon fill="#5DA044" points="172.09,338.053 173.05,289.285 82.327,233.812 36.137,258.403 		"/>
		<polygon fill="#5DA044" points="307.764,259.946 265.298,235.946 173.402,289.457 173.116,341.783 		"/>
		<polygon fill="#5DA044" points="305.211,103.06 263.216,127.873 263.699,234.211 308.895,260.585 		"/>
		<polygon id="XMLID_60_" fill="#2D5227" points="74.53,130.39 74.53,226.627 178.265,285.812 264.964,237.665 265.062,120.212 
			178.391,71.9 		"/>
		<path id="XMLID_19_" fill="#2D2E2D" d="M172.397,2.929L19.451,91.072l-0.139,176.526l152.806,88.385l152.946-88.145l0.14-176.525
			L172.397,2.929z M265.168,120.674l-88.244-51.039V30.713l121.951,70.536L265.168,120.674z M172.176,281.443l-88.282-51.064
			l0.082-101.987l88.363-50.924l88.283,51.064l-0.081,101.989L172.176,281.443z M167.848,69.579l-88.405,50.949l-33.677-19.479
			l122.082-70.357V69.579z M74.898,128.385l-0.081,101.986l-33.706,19.428l0.111-140.892L74.898,128.385z M79.349,238.237
			l88.284,51.063l-0.032,38.904L45.642,257.662L79.349,238.237z M176.71,289.309l88.364-50.924l33.677,19.477l-122.072,70.351
			L176.71,289.309z M269.619,230.525l0.081-101.986l33.708-19.425l-0.113,140.891L269.619,230.525z"/>
	</g>
</g>
<g id="Layer_2">
	<g id="XMLID_23_">
		<polygon fill="#2D5227" points="183.539,18.75 183.539,69.061 278.22,124.431 325.354,98.135 		"/>
		<polygon fill="#2D5227" points="43.952,100.653 87.544,125.772 182.79,71.378 183.539,17.41 		"/>
		<polygon fill="#2D5227" points="44.31,260.784 88.387,236.527 91.246,126.879 45.482,98.265 		"/>
		<polygon fill="#2D5227" points="183.363,343.583 184.354,293.282 90.777,236.064 43.136,261.431 		"/>
		<polygon fill="#2D5227" points="323.307,263.02 279.503,238.267 184.716,293.461 184.422,347.433 		"/>
		<polygon fill="#2D5227" points="320.67,101.201 277.355,126.794 277.854,236.478 324.471,263.681 		"/>
		<path id="XMLID_24_" display="none" fill="#2D2E2D" d="M183.681-2.079L25.925,88.836l-0.143,182.077l157.611,91.165
			l157.756-90.916l0.146-182.077L183.681-2.079z M279.37,119.37l-91.019-52.644V26.579l125.785,72.755L279.37,119.37z
			 M183.454,285.193l-91.061-52.668l0.086-105.196l91.142-52.525l91.062,52.67l-0.086,105.197L183.454,285.193z M178.99,66.667
			l-91.187,52.552L53.069,99.127l125.921-72.57V66.667z M83.116,127.322l-0.083,105.195l-34.767,20.036l0.115-145.322
			L83.116,127.322z M87.707,240.63l91.06,52.671l-0.031,40.125L52.939,260.667L87.707,240.63z M188.128,293.309l91.144-52.528
			l34.736,20.091l-125.911,72.562L188.128,293.309z M283.961,232.676l0.083-105.195l34.766-20.036l-0.113,145.322L283.961,232.676z"
			/>
		<g>
			<polygon fill="none" points="178.99,66.667 178.99,26.557 53.069,99.127 87.804,119.218 			"/>
			<polygon fill="none" points="83.116,127.322 48.38,107.232 48.266,252.554 83.033,232.518 			"/>
			<polygon fill="none" points="87.707,240.63 52.939,260.667 178.735,333.426 178.767,293.301 			"/>
			<polygon fill="none" points="279.37,119.37 314.137,99.334 188.352,26.579 188.352,66.726 			"/>
			<polygon fill="none" points="283.961,232.676 318.696,252.768 318.81,107.445 284.044,127.481 			"/>
			<polygon fill="none" points="92.479,127.329 92.393,232.525 183.454,285.193 274.598,232.671 274.684,127.474 183.621,74.804 			
				"/>
			<polygon fill="none" points="188.128,293.309 188.097,333.434 314.008,260.871 279.271,240.78 			"/>
			<path fill="#FFFFFF" d="M183.681-2.079L25.925,88.836l-0.143,182.077l157.611,91.165l157.756-90.916l0.146-182.077L183.681-2.079
				z M318.81,107.445l-0.113,145.322l0.113,5.441l-4.802,2.662l-125.911,72.562l-5.277,2.298l-4.084-2.306L52.939,260.667
				l-4.454-3.452l-0.22-4.661l0.115-145.322l-0.115-5.849l4.803-2.256l125.921-72.57l5.4-3.072l3.961,3.094l125.785,72.755
				l4.673,2.966V107.445z"/>
			<path fill="#2D2E2D" d="M274.598,232.671l-91.144,52.522l-91.061-52.668l0.086-105.196l91.142-52.525l91.062,52.67
				L274.598,232.671z"/>
		</g>
	</g>
	<polygon id="XMLID_14_" fill="#2D5227" points="82.736,129.39 82.736,228.653 189.734,289.702 279.161,240.039 279.258,118.893 
		189.862,69.061 	"/>
	<polygon fill="#FFFFFF" points="279.37,119.143 188.352,66.498 188.352,26.352 184.391,23.258 178.99,26.33 178.99,66.439 
		87.804,118.992 53.069,98.9 48.266,101.156 48.38,107.005 83.116,127.096 83.033,232.29 48.266,252.329 48.485,256.99 
		52.939,260.438 87.707,240.401 178.767,293.072 178.735,333.199 182.819,335.507 188.097,333.206 188.128,293.08 279.271,240.555 
		314.008,260.645 318.81,257.98 318.696,252.542 283.961,232.45 284.044,127.254 318.81,107.218 318.81,102.073 314.137,99.106 	"/>
	<g>
		<polygon fill="none" points="178.99,66.773 178.99,26.663 53.069,99.233 87.804,119.325 		"/>
		<polygon fill="none" points="83.116,127.429 48.38,107.339 48.266,252.661 83.033,232.622 		"/>
		<polygon fill="none" points="87.707,240.735 52.939,260.771 178.735,333.531 178.767,293.405 		"/>
		<polygon fill="none" points="279.37,119.476 314.137,99.44 188.352,26.686 188.352,66.832 		"/>
		<polygon fill="none" points="283.961,232.783 318.696,252.875 318.81,107.552 284.044,127.588 		"/>
		<polygon fill="none" points="92.479,127.436 92.393,232.63 183.454,285.301 274.598,232.775 274.684,127.58 183.621,74.911 		"/>
		<polygon fill="none" points="188.128,293.413 188.097,333.541 314.008,260.978 279.271,240.888 		"/>
		<path fill="#2D5227" d="M274.598,232.775l-91.144,52.525L92.393,232.63l0.086-105.194l91.142-52.525l91.062,52.669
			L274.598,232.775z"/>
	</g>
</g>
</svg>
