<?xml version="1.0" encoding="utf-8"?>
<!-- Generator: Adobe Illustrator 16.0.0, SVG Export Plug-In . SVG Version: 6.00 Build 0)  -->
<!DOCTYPE svg PUBLIC "-//W3C//DTD SVG 1.1//EN" "http://www.w3.org/Graphics/SVG/1.1/DTD/svg11.dtd">
<svg version="1.1" xmlns="http://www.w3.org/2000/svg" xmlns:xlink="http://www.w3.org/1999/xlink" x="0px" y="0px" width="360px"
	 height="360px" viewBox="0 0 360 360" enable-background="new 0 0 360 360" xml:space="preserve">
<g id="Layer_1" display="none">
	<g id="XMLID_13_" display="inline">
		<polygon id="XMLID_3_" display="none" fill="#2D2E2D" points="173.188,3.329 20.242,91.472 20.104,267.998 172.909,356.383 
			325.855,268.238 325.995,91.713 		"/>
		<polygon fill="#5DA044" points="172.259,23.123 172.259,71.9 264.053,125.581 309.752,100.087 		"/>
		<polygon fill="#5DA044" points="36.929,102.529 79.192,126.881 171.534,74.146 172.259,21.824 		"/>
		<polygon fill="#5DA044" points="37.275,257.777 80.008,234.26 82.781,127.955 38.412,100.213 		"/>
		<polygon fill="#5DA044" points="172.09,338.053 173.05,289.285 82.327,233.812 36.137,258.403 		"/>
		<polygon fill="#5DA044" points="307.764,259.946 265.298,235.946 173.402,289.457 173.116,341.783 		"/>
		<polygon fill="#5DA044" points="305.211,103.06 263.216,127.873 263.699,234.211 308.895,260.585 		"/>
		<polygon id="XMLID_60_" fill="#2D5227" points="74.53,130.39 74.53,226.627 178.265,285.812 264.964,237.665 265.062,120.212 
			178.391,71.9 		"/>
		<path id="XMLID_19_" fill="#2D2E2D" d="M172.397,2.929L19.451,91.072l-0.139,176.526l152.806,88.385l152.946-88.145l0.14-176.525
			L172.397,2.929z M265.168,120.674l-88.244-51.039V30.713l121.951,70.536L265.168,120.674z M172.176,281.443l-88.282-51.064
			l0.082-101.987l88.363-50.924l88.283,51.064l-0.081,101.989L172.176,281.443z M167.848,69.579l-88.405,50.949l-33.677-19.479
			l122.082-70.357V69.579z M74.898,128.385l-0.081,101.986l-33.706,19.428l0.111-140.892L74.898,128.385z M79.349,238.237
			l88.284,51.063l-0.032,38.904L45.642,257.662L79.349,238.237z M176.71,289.309l88.364-50.924l33.677,19.477l-122.072,70.351
			L176.71,289.309z M269.619,230.525l0.081-101.986l33.708-19.425l-0.113,140.891L269.619,230.525z"/>
	</g>
</g>
<g id="Layer_2">
	<g id="XMLID_23_">
		<polygon fill="#2D5227" points="172.876,22.392 172.876,71.366 265.043,125.264 310.925,99.667 		"/>
		<polygon fill="#2D5227" points="37,102.119 79.434,126.569 172.148,73.622 172.876,21.087 		"/>
		<polygon fill="#2D5227" points="37.348,257.994 80.254,234.381 83.037,127.648 38.49,99.793 		"/>
		<polygon fill="#2D5227" points="172.707,338.594 173.671,289.628 82.582,233.931 36.205,258.622 		"/>
		<polygon fill="#2D5227" points="308.931,260.172 266.291,236.077 174.023,289.802 173.737,342.34 		"/>
		<polygon fill="#2D5227" points="306.364,102.652 264.201,127.565 264.686,234.332 310.063,260.812 		"/>
		<path id="XMLID_24_" display="none" fill="#2D2E2D" d="M173.016,2.117l-153.564,88.5l-0.14,177.238l153.423,88.742l153.565-88.5
			l0.141-177.239L173.016,2.117z M266.161,120.337l-88.598-51.245V30.013l122.442,70.82L266.161,120.337z M172.793,281.755
			l-88.639-51.271l0.082-102.399l88.721-51.129l88.642,51.271l-0.083,102.4L172.793,281.755z M168.449,69.035L79.687,120.19
			l-33.812-19.558l122.575-70.642V69.035z M75.123,128.079l-0.081,102.399l-33.843,19.504l0.111-141.459L75.123,128.079z
			 M79.592,238.375l88.64,51.271l-0.03,39.06L45.749,257.879L79.592,238.375z M177.344,289.652l88.722-51.131l33.812,19.558
			l-122.565,70.634L177.344,289.652z M270.631,230.633l0.081-102.399l33.841-19.503l-0.108,141.46L270.631,230.633z"/>
		<g>
			<polygon fill="none" points="168.449,69.035 168.449,29.991 45.874,100.633 79.687,120.19 			"/>
			<polygon fill="none" points="75.123,128.079 41.31,108.523 41.199,249.982 75.042,230.479 			"/>
			<polygon fill="none" points="79.592,238.375 45.749,257.879 168.202,328.705 168.232,289.646 			"/>
			<polygon fill="none" points="266.161,120.337 300.005,100.833 177.563,30.013 177.563,69.092 			"/>
			<polygon fill="none" points="270.631,230.633 304.444,250.19 304.553,108.73 270.712,128.233 			"/>
			<polygon fill="none" points="84.237,128.085 84.155,230.484 172.793,281.755 261.517,230.627 261.6,128.227 172.958,76.956 			
				"/>
			<polygon fill="none" points="177.344,289.652 177.313,328.713 299.879,258.079 266.066,238.521 			"/>
			<path fill="#2D2E2D" d="M173.016,2.117l-153.564,88.5l-0.14,177.238l153.423,88.742l153.565-88.5l0.141-177.239L173.016,2.117z
				 M304.553,108.73l-0.108,141.46l0.108,5.296l-4.674,2.593l-122.565,70.634l-5.137,2.237l-3.975-2.245L45.749,257.879
				l-4.335-3.358l-0.214-4.538l0.111-141.459l-0.111-5.694l4.675-2.196l122.575-70.642l5.258-2.99l3.856,3.012l122.442,70.82
				l4.548,2.888V108.73z"/>
			<path fill="#2D2E2D" d="M261.517,230.627l-88.723,51.128l-88.639-51.271l0.082-102.399l88.721-51.129l88.642,51.271
				L261.517,230.627z"/>
		</g>
	</g>
	<polygon id="XMLID_14_" fill="#2D5227" points="74.753,130.092 74.753,226.718 178.908,286.142 265.958,237.799 266.053,119.874 
		179.033,71.366 	"/>
	<polygon fill="#FFFFFF" stroke="#FFFFFF" stroke-width="4" stroke-miterlimit="10" points="266.161,120.116 177.563,68.871 
		177.563,29.792 173.707,26.78 168.449,29.771 168.449,68.814 79.687,119.97 45.874,100.412 41.199,102.608 41.31,108.302 
		75.123,127.858 75.042,230.257 41.199,249.763 41.413,254.299 45.749,257.658 79.592,238.154 168.232,289.425 168.202,328.484 
		172.177,330.729 177.313,328.492 177.344,289.432 266.066,238.302 299.879,257.857 304.553,255.266 304.444,249.971 
		270.631,230.411 270.712,128.013 304.553,108.509 304.553,103.5 300.005,100.613 	"/>
	<g>
		<polygon fill="none" points="168.449,69.139 168.449,30.095 45.874,100.736 79.687,120.294 		"/>
		<polygon fill="none" points="75.123,128.183 41.31,108.626 41.199,250.087 75.042,230.582 		"/>
		<polygon fill="none" points="79.592,238.479 45.749,257.982 168.202,328.81 168.232,289.749 		"/>
		<polygon fill="none" points="266.161,120.441 300.005,100.938 177.563,30.117 177.563,69.196 		"/>
		<polygon fill="none" points="270.631,230.736 304.444,250.294 304.553,108.834 270.712,128.337 		"/>
		<polygon fill="none" points="84.237,128.189 84.155,230.59 172.793,281.858 261.517,230.73 261.6,128.33 172.958,77.06 		"/>
		<polygon fill="none" points="177.344,289.757 177.313,328.817 299.879,258.183 266.066,238.627 		"/>
		<path fill="#2D5227" d="M261.517,230.73l-88.723,51.128L84.155,230.59l0.082-102.4l88.721-51.13l88.642,51.27L261.517,230.73z"/>
	</g>
	<path fill="#4D4D4D" d="M326.199,268.959l-153.94,88.713L18.462,268.713l0.142-177.671L172.543,2.328l153.8,88.958L326.199,268.959
		z"/>
	<g id="XMLID_94_">
		<polygon fill="#2D5227" points="171.689,47.985 171.689,88.561 248.051,133.216 286.064,112.008 		"/>
		<polygon fill="#2D5227" points="59.116,114.039 94.271,134.297 171.086,90.429 171.689,46.904 		"/>
		<polygon fill="#2D5227" points="59.404,243.183 94.953,223.619 97.257,135.19 60.35,112.113 		"/>
		<polygon fill="#2D5227" points="171.55,309.962 172.349,269.394 96.88,223.247 58.457,243.704 		"/>
		<polygon fill="#2D5227" points="284.411,244.986 249.086,225.024 172.64,269.535 172.402,313.062 		"/>
		<polygon fill="#2D5227" points="282.285,114.481 247.354,135.122 247.754,223.578 285.352,245.518 		"/>
		<path id="XMLID_95_" display="none" fill="#2D2E2D" d="M171.805,31.187L44.577,104.509l-0.116,146.844l127.113,73.522
			l127.229-73.322l0.115-146.844L171.805,31.187z M248.977,129.134l-73.404-42.458V54.299l101.445,58.676L248.977,129.134z
			 M171.621,262.87l-73.438-42.478l0.067-84.839l73.507-42.361l73.439,42.478l-0.069,84.839L171.621,262.87z M168.022,86.629
			l-73.542,42.382l-28.013-16.203l101.555-58.527V86.629z M90.701,135.548l-0.068,84.839l-28.038,16.159l0.092-117.201
			L90.701,135.548z M94.403,226.93l73.438,42.478l-0.025,32.36L66.364,243.089L94.403,226.93z M175.393,269.413l73.506-42.361
			l28.013,16.202l-101.543,58.521L175.393,269.413z M252.681,220.515l0.066-84.839l28.038-16.159l-0.091,117.201L252.681,220.515z"
			/>
		<g>
			<polygon fill="none" points="168.022,86.629 168.022,54.281 66.468,112.809 94.481,129.012 			"/>
			<polygon fill="none" points="90.701,135.548 62.687,119.345 62.595,236.546 90.633,220.387 			"/>
			<polygon fill="none" points="94.403,226.93 66.364,243.089 167.816,301.768 167.841,269.407 			"/>
			<polygon fill="none" points="248.977,129.134 277.018,112.975 175.572,54.299 175.572,86.676 			"/>
			<polygon fill="none" points="252.681,220.515 280.694,236.718 280.785,119.517 252.747,135.676 			"/>
			<polygon fill="none" points="98.251,135.553 98.184,220.393 171.621,262.87 245.128,220.509 245.197,135.669 171.758,93.192 			
				"/>
			<polygon fill="none" points="175.393,269.413 175.368,301.774 276.911,243.254 248.898,227.052 			"/>
			<path fill="#FFFFFF" d="M171.805,31.187L44.577,104.509l-0.116,146.844l127.113,73.522l127.229-73.322l0.115-146.844
				L171.805,31.187z M280.785,119.517l-0.091,117.201l0.091,4.389l-3.874,2.147l-101.543,58.521l-4.256,1.854l-3.295-1.86
				L66.364,243.089l-3.592-2.783l-0.177-3.76l0.092-117.201l-0.092-4.717l3.873-1.819l101.555-58.527l4.356-2.478l3.193,2.496
				l101.445,58.676l3.768,2.392V119.517z"/>
			<path fill="#2D2E2D" d="M245.128,220.509l-73.507,42.361l-73.438-42.478l0.067-84.839l73.507-42.361l73.439,42.478
				L245.128,220.509z"/>
		</g>
	</g>
	<polygon id="XMLID_40_" fill="#2D5227" points="90.395,137.215 90.395,217.27 176.688,266.505 248.808,226.451 248.889,128.749 
		176.792,88.561 	"/>
	<polygon fill="#FFFFFF" stroke="#FFFFFF" stroke-width="3" stroke-miterlimit="10" points="248.977,128.951 175.572,86.494 
		175.572,54.116 172.379,51.621 168.022,54.099 168.022,86.447 94.481,128.829 66.468,112.625 62.595,114.445 62.687,119.162 
		90.701,135.365 90.633,220.202 62.595,236.364 62.772,240.122 66.364,242.904 94.403,226.745 167.841,269.223 167.816,301.583 
		171.111,303.443 175.368,301.59 175.393,269.229 248.898,226.867 276.911,243.069 280.785,240.922 280.694,236.536 252.681,220.33 
		252.747,135.493 280.785,119.334 280.785,115.184 277.018,112.792 	"/>
	<g>
		<polygon fill="none" points="168.022,86.715 168.022,54.367 66.468,112.895 94.481,129.098 		"/>
		<polygon fill="none" points="90.701,135.634 62.687,119.431 62.595,236.633 90.633,220.471 		"/>
		<polygon fill="none" points="94.403,227.014 66.364,243.173 167.816,301.853 167.841,269.491 		"/>
		<polygon fill="none" points="248.977,129.22 277.018,113.061 175.572,54.385 175.572,86.762 		"/>
		<polygon fill="none" points="252.681,220.6 280.694,236.805 280.785,119.603 252.747,135.762 		"/>
		<polygon fill="none" points="98.251,135.639 98.184,220.478 171.621,262.955 245.128,220.596 245.197,135.756 171.758,93.278 		
			"/>
		<polygon fill="none" points="175.391,269.498 175.366,301.858 276.911,243.339 248.898,227.136 		"/>
		<path fill="#2D5227" d="M245.128,220.596l-73.507,42.359l-73.438-42.478l0.067-84.838l73.507-42.361l73.439,42.478
			L245.128,220.596z"/>
	</g>
</g>
</svg>
