<?xml version="1.0" encoding="utf-8"?>
<!-- Generator: Adobe Illustrator 16.0.0, SVG Export Plug-In . SVG Version: 6.00 Build 0)  -->
<!DOCTYPE svg PUBLIC "-//W3C//DTD SVG 1.1//EN" "http://www.w3.org/Graphics/SVG/1.1/DTD/svg11.dtd">
<svg version="1.1" id="Layer_1" xmlns="http://www.w3.org/2000/svg" xmlns:xlink="http://www.w3.org/1999/xlink" x="0px" y="0px"
	 width="360px" height="360px" viewBox="0 0 360 360" enable-background="new 0 0 360 360" xml:space="preserve">
<g id="XMLID_13_">
	<polygon fill="#5DA044" points="180,22.522 180,71.299 271.794,124.98 317.493,99.486 	"/>
	<polygon fill="#5DA044" points="44.67,101.928 86.933,126.281 179.275,73.546 180,21.223 	"/>
	<polygon fill="#5DA044" points="45.017,257.177 87.75,233.659 90.522,127.354 46.153,99.613 	"/>
	<polygon fill="#5DA044" points="179.832,337.452 180.791,288.685 90.068,233.212 43.878,257.803 	"/>
	<polygon fill="#5DA044" points="315.505,259.346 273.039,235.346 181.143,288.856 180.857,341.183 	"/>
	<polygon fill="#5DA044" points="312.952,102.459 270.957,127.272 271.44,233.61 316.636,259.984 	"/>
	<polygon id="XMLID_60_" fill="#2D5227" points="82.271,129.79 82.271,226.026 186.006,285.211 272.705,237.064 272.803,119.611 
		186.132,71.299 	"/>
	<path id="XMLID_19_" fill="#2D2E2D" d="M180.139,2.329L27.192,90.472l-0.139,176.526l152.806,88.385l152.946-88.145l0.14-176.525
		L180.139,2.329z M272.909,120.074l-88.244-51.039V30.113l121.951,70.536L272.909,120.074z M179.917,280.843l-88.282-51.064
		l0.082-101.987l88.363-50.924l88.283,51.064l-0.081,101.989L179.917,280.843z M175.589,68.978l-88.405,50.949l-33.677-19.479
		l122.082-70.357V68.978z M82.639,127.784l-0.081,101.986l-33.706,19.428l0.111-140.892L82.639,127.784z M87.09,237.637
		l88.284,51.063l-0.032,38.904L53.383,257.062L87.09,237.637z M184.451,288.708l88.364-50.924l33.677,19.477L184.42,327.611
		L184.451,288.708z M277.36,229.925l0.081-101.986l33.708-19.425l-0.113,140.891L277.36,229.925z"/>
</g>
</svg>
